<?xml version="1.0" standalone="no"?>
<!DOCTYPE svg PUBLIC "-//W3C//DTD SVG 20010904//EN"
 "http://www.w3.org/TR/2001/REC-SVG-20010904/DTD/svg10.dtd">
<svg version="1.0" xmlns="http://www.w3.org/2000/svg"
 width="371.000000pt" height="371.000000pt" viewBox="0 0 371.000000 371.000000"
 preserveAspectRatio="xMidYMid meet">
<metadata>
Created by potrace 1.11, written by Peter Selinger 2001-2013
</metadata>
<g transform="translate(0.000000,371.000000) scale(0.100000,-0.100000)"
fill="#000000" stroke="none">
<path d="M1779 3638 c-4 -183 -37 -340 -101 -478 -30 -64 -108 -189 -138 -221
-8 -8 -44 -47 -80 -85 -72 -75 -222 -212 -434 -394 -127 -109 -240 -230 -301
-325 -103 -159 -187 -369 -210 -530 -23 -158 -23 -341 1 -458 2 -12 7 -35 9
-52 22 -122 130 -386 183 -443 6 -7 17 -23 24 -35 34 -65 193 -235 287 -307
18 -14 39 -31 46 -37 8 -7 16 -13 19 -13 3 0 37 -20 75 -45 38 -25 73 -45 76
-45 4 0 19 -8 33 -18 27 -19 191 -84 205 -81 1 0 15 -4 30 -10 15 -6 42 -13
60 -16 18 -3 39 -8 47 -10 63 -18 335 -27 407 -13 27 5 65 11 87 14 21 4 68
15 105 26 36 10 73 21 81 23 70 16 314 138 350 175 3 3 31 25 63 49 131 100
276 277 369 451 35 66 94 213 102 253 2 12 11 60 20 106 35 181 37 345 8 497
-49 248 -135 438 -264 579 l-43 46 -1 -63 c-4 -160 -21 -261 -64 -390 -113
-332 -416 -608 -670 -608 -70 0 -103 14 -166 72 -130 120 -113 285 48 488 33
41 74 92 92 114 17 21 35 46 40 55 5 9 16 22 24 30 7 8 26 33 40 55 145 224
193 393 188 656 -4 163 -29 270 -100 415 -112 230 -244 383 -533 616 -10 8
-13 -2 -14 -43z"/>
</g>
</svg>
